<svg width="150" height="31" viewBox="0 0 150 31" fill="none" xmlns="http://www.w3.org/2000/svg">
<path d="M22.28 3.64C22.92 3.98667 23.24 4.52 23.24 5.24C23.24 5.72 23.08 6.16 22.76 6.56C22.44 6.98666 22 7.2 21.44 7.2C21.0667 7.2 20.7067 7.10666 20.36 6.92C18.7067 5.98667 16.92 5.52 15 5.52C13 5.52 11.2267 5.96 9.68 6.84C8.16 7.72 6.97333 8.96 6.12 10.56C5.26667 12.1333 4.84 13.9467 4.84 16C4.84 18.2133 5.28 20.12 6.16 21.72C7.04 23.32 8.25333 24.5467 9.8 25.4C11.3467 26.2267 13.08 26.64 15 26.64C16.9733 26.64 18.76 26.16 20.36 25.2C20.68 25.04 21.0267 24.96 21.4 24.96C21.9867 24.96 22.4533 25.1867 22.8 25.64C23.12 26.04 23.28 26.4667 23.28 26.92C23.28 27.24 23.1867 27.5467 23 27.84C22.84 28.1067 22.6133 28.32 22.32 28.48C21.28 29.0667 20.1067 29.5333 18.8 29.88C17.52 30.2267 16.2533 30.4 15 30.4C12.4133 30.4 10.0267 29.8267 7.84 28.68C5.68 27.5333 3.94667 25.8667 2.64 23.68C1.36 21.4933 0.72 18.9333 0.72 16C0.72 13.3067 1.33333 10.88 2.56 8.72C3.81333 6.53333 5.52 4.82667 7.68 3.6C9.86667 2.34667 12.3067 1.72 15 1.72C17.5867 1.72 20.0133 2.36 22.28 3.64ZM47.1878 19.52C47.1878 21.6 46.7211 23.4667 45.7878 25.12C44.8545 26.7733 43.5745 28.0667 41.9478 29C40.3478 29.9333 38.5745 30.4 36.6278 30.4C34.6811 30.4 32.8945 29.9333 31.2678 29C29.6678 28.0667 28.4011 26.7733 27.4678 25.12C26.5345 23.4667 26.0678 21.6 26.0678 19.52C26.0678 17.44 26.5345 15.56 27.4678 13.88C28.4011 12.2 29.6678 10.8933 31.2678 9.96C32.8945 9.02667 34.6811 8.56 36.6278 8.56C38.5745 8.56 40.3478 9.02667 41.9478 9.96C43.5745 10.8933 44.8545 12.2 45.7878 13.88C46.7211 15.56 47.1878 17.44 47.1878 19.52ZM43.3878 19.52C43.3878 18.08 43.0811 16.8 42.4678 15.68C41.8811 14.5333 41.0678 13.6533 40.0278 13.04C39.0145 12.4 37.8811 12.08 36.6278 12.08C35.3745 12.08 34.2278 12.4 33.1878 13.04C32.1745 13.6533 31.3611 14.5333 30.7478 15.68C30.1611 16.8 29.8678 18.08 29.8678 19.52C29.8678 20.9333 30.1611 22.2 30.7478 23.32C31.3611 24.44 32.1745 25.32 33.1878 25.96C34.2278 26.5733 35.3745 26.88 36.6278 26.88C37.8811 26.88 39.0145 26.5733 40.0278 25.96C41.0678 25.32 41.8811 24.44 42.4678 23.32C43.0811 22.2 43.3878 20.9333 43.3878 19.52ZM55.7256 28.08C55.7256 28.6133 55.539 29.0667 55.1656 29.44C54.7923 29.8133 54.339 30 53.8056 30C53.2723 30 52.819 29.8133 52.4456 29.44C52.099 29.0667 51.9256 28.6133 51.9256 28.08V2.32C51.9256 1.78667 52.1123 1.33333 52.4856 0.96C52.859 0.586666 53.3123 0.4 53.8456 0.4C54.379 0.4 54.819 0.586666 55.1656 0.96C55.539 1.33333 55.7256 1.78667 55.7256 2.32V28.08ZM81.1722 19.52C81.1722 21.6 80.7055 23.4667 79.7722 25.12C78.8389 26.7733 77.5589 28.0667 75.9322 29C74.3322 29.9333 72.5589 30.4 70.6122 30.4C68.6655 30.4 66.8789 29.9333 65.2522 29C63.6522 28.0667 62.3855 26.7733 61.4522 25.12C60.5189 23.4667 60.0522 21.6 60.0522 19.52C60.0522 17.44 60.5189 15.56 61.4522 13.88C62.3855 12.2 63.6522 10.8933 65.2522 9.96C66.8789 9.02667 68.6655 8.56 70.6122 8.56C72.5589 8.56 74.3322 9.02667 75.9322 9.96C77.5589 10.8933 78.8389 12.2 79.7722 13.88C80.7055 15.56 81.1722 17.44 81.1722 19.52ZM77.3722 19.52C77.3722 18.08 77.0655 16.8 76.4522 15.68C75.8655 14.5333 75.0522 13.6533 74.0122 13.04C72.9989 12.4 71.8655 12.08 70.6122 12.08C69.3589 12.08 68.2122 12.4 67.1722 13.04C66.1589 13.6533 65.3455 14.5333 64.7322 15.68C64.1455 16.8 63.8522 18.08 63.8522 19.52C63.8522 20.9333 64.1455 22.2 64.7322 23.32C65.3455 24.44 66.1589 25.32 67.1722 25.96C68.2122 26.5733 69.3589 26.88 70.6122 26.88C71.8655 26.88 72.9989 26.5733 74.0122 25.96C75.0522 25.32 75.8655 24.44 76.4522 23.32C77.0655 22.2 77.3722 20.9333 77.3722 19.52ZM96.03 8.56C96.7233 8.56 97.3233 8.74667 97.83 9.12C98.3367 9.46667 98.59 9.90667 98.59 10.44C98.59 11.08 98.4167 11.5733 98.07 11.92C97.75 12.24 97.35 12.4 96.87 12.4C96.63 12.4 96.27 12.32 95.79 12.16C95.23 11.9733 94.79 11.88 94.47 11.88C93.6433 11.88 92.83 12.1733 92.03 12.76C91.2567 13.32 90.6167 14.1067 90.11 15.12C89.63 16.1067 89.39 17.2133 89.39 18.44V28.08C89.39 28.6133 89.2033 29.0667 88.83 29.44C88.4833 29.8133 88.03 30 87.47 30C86.91 30 86.4567 29.8267 86.11 29.48C85.7633 29.1067 85.59 28.64 85.59 28.08V10.96C85.59 10.4267 85.7633 9.97333 86.11 9.6C86.4833 9.22666 86.9367 9.04 87.47 9.04C88.03 9.04 88.4833 9.22666 88.83 9.6C89.2033 9.97333 89.39 10.4267 89.39 10.96V13C89.9767 11.6933 90.8567 10.64 92.03 9.84C93.2033 9.01333 94.5367 8.58667 96.03 8.56Z" fill="#D293C1"/>
<path d="M114.891 4.64C113.984 4.64 113.344 4.90667 112.971 5.44C112.598 5.94667 112.411 6.50667 112.411 7.12V9H116.051C116.691 9 117.224 9.21333 117.651 9.64C118.078 10.04 118.291 10.56 118.291 11.2C118.291 11.84 118.078 12.3733 117.651 12.8C117.224 13.2 116.691 13.4 116.051 13.4H112.411V27.56C112.411 28.2533 112.184 28.84 111.731 29.32C111.278 29.7733 110.704 30 110.011 30C109.318 30 108.744 29.7733 108.291 29.32C107.838 28.84 107.611 28.2533 107.611 27.56V13.4H105.451C104.811 13.4 104.278 13.2 103.851 12.8C103.424 12.3733 103.211 11.84 103.211 11.2C103.211 10.56 103.424 10.04 103.851 9.64C104.278 9.21333 104.811 9 105.451 9H107.611V7.16C107.611 5.16 108.291 3.53333 109.651 2.28C111.038 1.02667 113.024 0.4 115.611 0.4C116.598 0.4 117.451 0.599999 118.171 0.999999C118.918 1.4 119.291 2.01333 119.291 2.84C119.291 3.48 119.104 4 118.731 4.4C118.358 4.8 117.904 5 117.371 5C117.238 5 117.091 4.98667 116.931 4.96C116.798 4.93333 116.651 4.90667 116.491 4.88C115.851 4.72 115.318 4.64 114.891 4.64ZM137.171 8.6C137.864 8.6 138.437 8.84 138.891 9.32C139.344 9.77333 139.571 10.3467 139.571 11.04V21.2C139.571 24.08 138.771 26.3333 137.171 27.96C135.597 29.5867 133.344 30.4 130.411 30.4C127.477 30.4 125.224 29.5867 123.651 27.96C122.077 26.3333 121.291 24.08 121.291 21.2V11.04C121.291 10.3467 121.517 9.77333 121.971 9.32C122.424 8.84 122.997 8.6 123.691 8.6C124.384 8.6 124.957 8.84 125.411 9.32C125.864 9.77333 126.091 10.3467 126.091 11.04V21.2C126.091 22.8267 126.451 24.04 127.171 24.84C127.891 25.6133 128.971 26 130.411 26C131.877 26 132.971 25.6133 133.691 24.84C134.411 24.04 134.771 22.8267 134.771 21.2V11.04C134.771 10.3467 134.997 9.77333 135.451 9.32C135.904 8.84 136.477 8.6 137.171 8.6ZM149.967 27.56C149.967 28.2533 149.727 28.84 149.247 29.32C148.794 29.7733 148.221 30 147.527 30C146.861 30 146.301 29.7733 145.847 29.32C145.394 28.84 145.167 28.2533 145.167 27.56V2.84C145.167 2.14667 145.394 1.57333 145.847 1.12C146.327 0.639999 146.914 0.4 147.607 0.4C148.274 0.4 148.834 0.639999 149.287 1.12C149.741 1.57333 149.967 2.14667 149.967 2.84V27.56Z" fill="#1BCDD9"/>
</svg>
