<svg width="9" height="11" viewBox="0 0 9 11" fill="none" xmlns="http://www.w3.org/2000/svg">
<path fill-rule="evenodd" clip-rule="evenodd" d="M4.31756 0C1.44714 0 0 2.08801 0 3.82931C0 4.8836 0.393246 5.82148 1.23713 6.1711C1.37539 6.22852 1.49949 6.17304 1.53963 6.01763C1.56736 5.90995 1.63348 5.63871 1.66296 5.5256C1.70348 5.37194 1.68758 5.318 1.57609 5.18413C1.33273 4.89291 1.17722 4.51594 1.17722 3.982C1.17722 2.43297 2.31953 1.04614 4.15177 1.04614C5.7742 1.04614 6.66559 2.05192 6.66559 3.3953C6.66559 5.1626 5.89462 6.6542 4.75017 6.6542C4.11803 6.6542 3.64509 6.12395 3.79672 5.47361C3.97822 4.69696 4.32997 3.859 4.32997 3.29848C4.32997 2.79675 4.06451 2.37826 3.51517 2.37826C2.86907 2.37826 2.35017 3.05635 2.35017 3.96493C2.35017 4.54329 2.54272 4.93482 2.54272 4.93482C2.54272 4.93482 1.88169 7.77717 1.76573 8.27501C1.53478 9.26625 1.73102 10.4816 1.7475 10.6044C1.75739 10.6771 1.8495 10.6944 1.89119 10.6395C1.95072 10.5605 2.72034 9.59666 2.98192 8.63356C3.0558 8.36077 3.40677 6.94852 3.40677 6.94852C3.61678 7.35479 4.2303 7.71256 4.88261 7.71256C6.82479 7.71256 8.1424 5.91616 8.1424 3.51171C8.1424 1.69338 6.62449 0 4.31756 0Z" fill="#C30102"/>
</svg>
