<svg width="12" height="16" viewBox="0 0 12 16" fill="none" xmlns="http://www.w3.org/2000/svg">
<path fill-rule="evenodd" clip-rule="evenodd" d="M6.36308 0C2.13274 0 0 3.1305 0 5.7412C0 7.32187 0.579553 8.72801 1.82325 9.25218C2.02701 9.33828 2.2099 9.25509 2.26906 9.02209C2.30992 8.86065 2.40737 8.45399 2.45081 8.28441C2.51054 8.05402 2.4871 7.97316 2.32278 7.77245C1.96414 7.33583 1.73494 6.77064 1.73494 5.97012C1.73494 3.6477 3.41845 1.56845 6.11874 1.56845C8.50982 1.56845 9.82353 3.0764 9.82353 5.09049C9.82353 7.74016 8.68729 9.97648 7.00064 9.97648C6.06901 9.97648 5.37201 9.1815 5.59548 8.20645C5.86297 7.04204 6.38137 5.7857 6.38137 4.94534C6.38137 4.19311 5.99014 3.56567 5.18054 3.56567C4.22833 3.56567 3.4636 4.58231 3.4636 5.94453C3.4636 6.81166 3.74737 7.39866 3.74737 7.39866C3.74737 7.39866 2.77317 11.6601 2.60227 12.4065C2.26191 13.8927 2.55112 15.7148 2.57541 15.8989C2.58998 16.008 2.72573 16.0339 2.78717 15.9516C2.8749 15.8332 4.00914 14.388 4.39466 12.9441C4.50354 12.5351 5.02079 10.4178 5.02079 10.4178C5.33029 11.0269 6.23448 11.5633 7.19583 11.5633C10.0582 11.5633 12 8.86996 12 5.26502C12 2.53884 9.76295 0 6.36308 0" fill="#8D8D8D"/>
</svg>
