<svg width="130" height="130" viewBox="0 0 130 130" fill="none" xmlns="http://www.w3.org/2000/svg">
<path opacity="0.2" d="M65 130C100.899 130 130 100.899 130 65C130 29.1015 100.899 0 65 0C29.1015 0 0 29.1015 0 65C0 100.899 29.1015 130 65 130Z" fill="#1BCDD9"/>
<path opacity="0.6" d="M65 120C95.3757 120 120 95.3757 120 65C120 34.6243 95.3757 10 65 10C34.6243 10 10 34.6243 10 65C10 95.3757 34.6243 120 65 120Z" fill="#1BCDD9"/>
<path d="M65 110C89.8528 110 110 89.8528 110 65C110 40.1472 89.8528 20 65 20C40.1472 20 20 40.1472 20 65C20 89.8528 40.1472 110 65 110Z" fill="#1BCDD9"/>
<path fill-rule="evenodd" clip-rule="evenodd" d="M71.816 63.1399L59.992 55.54C59.5361 55.2155 58.9969 55.0281 58.438 55C58.2213 55.0073 58.0088 55.0612 57.8149 55.1582C57.621 55.2552 57.4503 55.393 57.3144 55.562C57.1786 55.731 57.0808 55.9272 57.0277 56.1375C56.9747 56.3477 56.9676 56.5668 57.007 56.78V73.22C56.9677 73.433 56.9747 73.652 57.0276 73.8621C57.0805 74.0721 57.1781 74.2683 57.3137 74.4373C57.4494 74.6062 57.6198 74.744 57.8135 74.8411C58.0072 74.9382 58.2195 74.9924 58.436 75C58.9914 74.9669 59.5267 74.7799 59.982 74.46L71.812 66.8601C72.1649 66.6939 72.4632 66.4307 72.6721 66.1013C72.881 65.772 72.9919 65.39 72.9919 65C72.9919 64.61 72.881 64.228 72.6721 63.8987C72.4632 63.5693 72.1649 63.3061 71.812 63.1399" fill="white"/>
</svg>
